<svg width="600" height="600" viewBox="0 0 600 600" fill="none" xmlns="http://www.w3.org/2000/svg">
<mask id="mask0_1282_995" style="mask-type:luminance" maskUnits="userSpaceOnUse" x="100" y="100" width="400" height="400">
<path d="M100 100H500V500H100V100Z" fill="white"/>
</mask>
<g mask="url(#mask0_1282_995)">
<mask id="mask1_1282_995" style="mask-type:alpha" maskUnits="userSpaceOnUse" x="104" y="99" width="392" height="402">
<path d="M288.684 166.86C288.684 128.65 288.684 109.544 276.236 102.38C263.79 95.212 247.192 104.766 214 123.87L190.004 137.682C156.81 156.788 140.214 166.342 140.214 180.67C140.214 195 156.81 204.552 190.004 223.658L214 237.472C247.194 256.578 263.792 266.132 276.24 258.966C288.686 251.802 288.686 232.696 288.686 194.486L288.684 166.86ZM178.686 243.2C145.492 224.094 128.896 214.54 116.446 221.706C104 228.872 104 247.976 104 286.188V313.812C104 352.024 104 371.128 116.448 378.294C128.896 385.458 145.492 375.906 178.686 356.8L202.682 342.988C235.876 323.882 252.474 314.33 252.474 300C252.474 285.67 235.876 276.118 202.682 257.012L178.686 243.2ZM190.002 376.34C156.808 395.446 140.212 404.998 140.212 419.328C140.212 433.656 156.808 443.21 190.002 462.316L214 476.128C247.194 495.232 263.792 504.786 276.24 497.622C288.686 490.456 288.686 471.35 288.686 433.14V405.516C288.686 367.304 288.686 348.198 276.238 341.034C263.792 333.87 247.194 343.422 214 362.528L190.002 376.34ZM311.316 433.138C311.316 471.35 311.316 490.456 323.764 497.62C336.212 504.786 352.808 495.232 386.002 476.126L409.998 462.316C443.192 443.21 459.788 433.656 459.788 419.328C459.788 404.998 443.192 395.446 409.998 376.34L386.002 362.528C352.808 343.422 336.212 333.87 323.764 341.034C311.316 348.198 311.316 367.304 311.316 405.516V433.138ZM421.314 356.8C454.508 375.906 471.104 385.458 483.552 378.294C496 371.128 496 352.022 496 313.812V286.188C496 247.978 496 228.872 483.552 221.708C471.104 214.542 454.508 224.096 421.314 243.2L397.318 257.012C364.124 276.118 347.528 285.672 347.528 300C347.528 314.33 364.124 323.882 397.318 342.988L421.314 356.8ZM409.998 223.66C443.192 204.554 459.788 195.002 459.788 180.672C459.788 166.344 443.192 156.792 409.998 137.684L386.002 123.874C352.808 104.768 336.212 95.214 323.764 102.38C311.316 109.544 311.316 128.65 311.316 166.86V194.484C311.316 232.696 311.316 251.802 323.764 258.966C336.212 266.13 352.808 256.578 386.002 237.472L409.998 223.66Z" fill="white"/>
</mask>
<g mask="url(#mask1_1282_995)">
<path d="M500 100H100V500H500V100Z" fill="white"/>
<path d="M500 100H100V500H500V100Z" fill="#1FC16B" fill-opacity="0.13"/>
<g filter="url(#filter0_f_1282_995)">
<path d="M232.958 549.553C305.866 500.608 332.969 413.263 293.495 354.464C254.02 295.665 162.917 287.677 90.0097 336.623C17.1022 385.568 -10.0008 472.913 29.4734 531.712C68.9475 590.511 160.051 598.499 232.958 549.553Z" fill="#1FC16B"/>
<path d="M564 70H342V312H564V70Z" fill="#1FC16B"/>
<path d="M174 300C240.274 300 294 259.706 294 210C294 160.294 240.274 120 174 120C107.726 120 54 160.294 54 210C54 259.706 107.726 300 174 300Z" fill="#1FC16B"/>
<path d="M568 342H300V584H568V342Z" fill="#1FC16B"/>
</g>
</g>
</g>
<defs>
<filter id="filter0_f_1282_995" x="-148.663" y="-90" width="876.663" height="834" filterUnits="userSpaceOnUse" color-interpolation-filters="sRGB">
<feFlood flood-opacity="0" result="BackgroundImageFix"/>
<feBlend mode="normal" in="SourceGraphic" in2="BackgroundImageFix" result="shape"/>
<feGaussianBlur stdDeviation="80" result="effect1_foregroundBlur_1282_995"/>
</filter>
</defs>
</svg>
