<svg width="204" height="64" viewBox="0 0 204 64" fill="none" xmlns="http://www.w3.org/2000/svg">
<mask id="mask0_62_53" style="mask-type:luminance" maskUnits="userSpaceOnUse" x="10" y="10" width="44" height="44">
<path d="M10.6667 10.6667H53.3334V53.3333H10.6667V10.6667Z" fill="white"/>
</mask>
<g mask="url(#mask0_62_53)">
<mask id="mask1_62_53" style="mask-type:alpha" maskUnits="userSpaceOnUse" x="11" y="10" width="42" height="44">
<path d="M30.7931 17.7984C30.7931 13.7227 30.7931 11.6847 29.4653 10.9205C28.1378 10.1559 26.3673 11.175 22.8268 13.2128L20.2673 14.6861C16.7266 16.7241 14.9563 17.7431 14.9563 19.2715C14.9563 20.8 16.7266 21.8189 20.2673 23.8569L22.8268 25.3303C26.3675 27.3683 28.138 28.3874 29.4658 27.623C30.7933 26.8589 30.7933 24.8209 30.7933 20.7452L30.7931 17.7984ZM19.06 25.9413C15.5193 23.9034 13.7491 22.8843 12.4211 23.6486C11.0935 24.413 11.0935 26.4508 11.0935 30.5267V33.4733C11.0935 37.5492 11.0935 39.587 12.4213 40.3514C13.7491 41.1155 15.5193 40.0966 19.06 38.0587L21.6196 36.5854C25.1603 34.5474 26.9307 33.5285 26.9307 32C26.9307 30.4715 25.1603 29.4526 21.6196 27.4146L19.06 25.9413ZM20.2671 40.1429C16.7264 42.1809 14.9561 43.1998 14.9561 44.7283C14.9561 46.2566 16.7264 47.2757 20.2671 49.3137L22.8268 50.787C26.3675 52.8247 28.138 53.8438 29.4658 53.0797C30.7933 52.3153 30.7933 50.2773 30.7933 46.2016V43.255C30.7933 39.1791 30.7933 37.1411 29.4656 36.377C28.138 35.6128 26.3675 36.6317 22.8268 38.6697L20.2671 40.1429ZM33.2072 46.2014C33.2072 50.2773 33.2072 52.3153 34.535 53.0795C35.8628 53.8438 37.633 52.8247 41.1737 50.7868L43.7333 49.3137C47.274 47.2757 49.0442 46.2566 49.0442 44.7283C49.0442 43.1998 47.274 42.1809 43.7333 40.1429L41.1737 38.6697C37.633 36.6317 35.8628 35.6128 34.535 36.377C33.2072 37.1411 33.2072 39.1791 33.2072 43.255V46.2014ZM44.9403 38.0587C48.481 40.0966 50.2513 41.1155 51.5791 40.3514C52.9068 39.587 52.9068 37.549 52.9068 33.4733V30.5267C52.9068 26.451 52.9068 24.413 51.5791 23.6489C50.2513 22.8845 48.481 23.9036 44.9403 25.9413L42.3808 27.4146C38.8401 29.4526 37.0698 30.4717 37.0698 32C37.0698 33.5285 38.8401 34.5474 42.3808 36.5854L44.9403 38.0587ZM43.7333 23.8571C47.274 21.8191 49.0442 20.8002 49.0442 19.2717C49.0442 17.7434 47.274 16.7245 43.7333 14.6863L41.1737 13.2132C37.633 11.1753 35.8628 10.1562 34.535 10.9205C33.2072 11.6847 33.2072 13.7227 33.2072 17.7984V20.745C33.2072 24.8209 33.2072 26.8589 34.535 27.623C35.8628 28.3872 37.633 27.3683 41.1737 25.3303L43.7333 23.8571Z" fill="white"/>
</mask>
<g mask="url(#mask1_62_53)">
<path d="M53.3334 10.6667H10.6667V53.3333H53.3334V10.6667Z" fill="#45CB84"/>
<path d="M53.3334 10.6667H10.6667V53.3333H53.3334V10.6667Z" fill="#1FC16B" fill-opacity="0.13"/>
<g filter="url(#filter0_f_62_53)">
<path d="M24.849 58.619C32.6259 53.3982 35.5169 44.0814 31.3063 37.8095C27.0956 31.5376 17.378 30.6855 9.6012 35.9064C1.8244 41.1272 -1.06659 50.444 3.14399 56.7159C7.35456 62.9878 17.0723 63.8399 24.849 58.619Z" fill="#45CB84"/>
<path d="M60.1602 7.46667H36.4802V33.28H60.1602V7.46667Z" fill="#45CB84"/>
<path d="M18.5603 32C25.6295 32 31.3603 27.702 31.3603 22.4C31.3603 17.098 25.6295 12.8 18.5603 12.8C11.491 12.8 5.76025 17.098 5.76025 22.4C5.76025 27.702 11.491 32 18.5603 32Z" fill="#45CB84"/>
<path d="M60.5869 36.48H32.0002V62.2933H60.5869V36.48Z" fill="#45CB84"/>
</g>
</g>
</g>
<path d="M75.0341 49V14.0909H98.1477V20.1761H82.4148V28.4943H96.6136V34.5795H82.4148V49H75.0341ZM110.237 14.0909V49H102.976V14.0909H110.237ZM132.844 37.8523V22.8182H140.105V49H133.134V44.2443H132.861C132.27 45.7784 131.287 47.0114 129.912 47.9432C128.548 48.875 126.884 49.3409 124.918 49.3409C123.168 49.3409 121.628 48.9432 120.298 48.1477C118.969 47.3523 117.929 46.2216 117.179 44.7557C116.44 43.2898 116.065 41.5341 116.054 39.4886V22.8182H123.315V38.1932C123.327 39.7386 123.741 40.9602 124.56 41.858C125.378 42.7557 126.474 43.2045 127.849 43.2045C128.724 43.2045 129.543 43.0057 130.304 42.608C131.065 42.1989 131.679 41.5966 132.145 40.8011C132.622 40.0057 132.855 39.0227 132.844 37.8523ZM145.913 49V22.8182H153.175V49H145.913ZM149.561 19.4432C148.482 19.4432 147.555 19.0852 146.783 18.3693C146.021 17.642 145.641 16.7727 145.641 15.7614C145.641 14.7614 146.021 13.9034 146.783 13.1875C147.555 12.4602 148.482 12.0966 149.561 12.0966C150.641 12.0966 151.561 12.4602 152.322 13.1875C153.095 13.9034 153.482 14.7614 153.482 15.7614C153.482 16.7727 153.095 17.642 152.322 18.3693C151.561 19.0852 150.641 19.4432 149.561 19.4432ZM158.991 49V22.8182H166.031V27.3864H166.304C166.781 25.7614 167.582 24.5341 168.707 23.7045C169.832 22.8636 171.128 22.4432 172.594 22.4432C172.957 22.4432 173.349 22.4659 173.77 22.5114C174.19 22.5568 174.56 22.6193 174.878 22.6989V29.142C174.537 29.0398 174.065 28.9489 173.463 28.8693C172.861 28.7898 172.31 28.75 171.81 28.75C170.741 28.75 169.787 28.983 168.946 29.4489C168.116 29.9034 167.457 30.5398 166.969 31.358C166.491 32.1761 166.253 33.1193 166.253 34.1875V49H158.991ZM189.345 49.5114C186.652 49.5114 184.334 48.9659 182.391 47.875C180.459 46.7727 178.97 45.2159 177.925 43.2045C176.879 41.1818 176.357 38.7898 176.357 36.0284C176.357 33.3352 176.879 30.9716 177.925 28.9375C178.97 26.9034 180.442 25.3182 182.339 24.1818C184.249 23.0455 186.487 22.4773 189.055 22.4773C190.783 22.4773 192.391 22.7557 193.879 23.3125C195.379 23.858 196.686 24.6818 197.8 25.7841C198.925 26.8864 199.8 28.2727 200.425 29.9432C201.05 31.6023 201.362 33.5455 201.362 35.7727V37.767H179.254V33.267H194.527C194.527 32.2216 194.3 31.2955 193.845 30.4886C193.391 29.6818 192.76 29.0511 191.953 28.5966C191.158 28.1307 190.232 27.8977 189.175 27.8977C188.072 27.8977 187.095 28.1534 186.243 28.6648C185.402 29.1648 184.743 29.8409 184.266 30.6932C183.788 31.5341 183.544 32.4716 183.533 33.5057V37.7841C183.533 39.0795 183.771 40.1989 184.249 41.142C184.737 42.0852 185.425 42.8125 186.311 43.3239C187.197 43.8352 188.249 44.0909 189.464 44.0909C190.271 44.0909 191.01 43.9773 191.68 43.75C192.351 43.5227 192.925 43.1818 193.402 42.7273C193.879 42.2727 194.243 41.7159 194.493 41.0568L201.209 41.5C200.868 43.1136 200.169 44.5227 199.112 45.7273C198.067 46.9205 196.714 47.8523 195.055 48.5227C193.408 49.1818 191.504 49.5114 189.345 49.5114Z" fill="black"/>
<defs>
<filter id="filter0_f_62_53" x="-158.791" y="-152.533" width="379.377" height="374.827" filterUnits="userSpaceOnUse" color-interpolation-filters="sRGB">
<feFlood flood-opacity="0" result="BackgroundImageFix"/>
<feBlend mode="normal" in="SourceGraphic" in2="BackgroundImageFix" result="shape"/>
<feGaussianBlur stdDeviation="80" result="effect1_foregroundBlur_62_53"/>
</filter>
</defs>
</svg>
